<?xml version="1.0" standalone="no"?>
<!DOCTYPE svg PUBLIC "-//W3C//DTD SVG 20010904//EN"
 "http://www.w3.org/TR/2001/REC-SVG-20010904/DTD/svg10.dtd">
<svg version="1.0" xmlns="http://www.w3.org/2000/svg"
 width="256.000000pt" height="256.000000pt" viewBox="0 0 256.000000 256.000000"
 preserveAspectRatio="xMidYMid meet">
<metadata>
Created by potrace 1.11, written by Peter Selinger 2001-2013
</metadata>
<g transform="translate(0.000000,256.000000) scale(0.100000,-0.100000)"
fill="#000000" stroke="none">
<path d="M2147 2414 c-1 -1 -67 -5 -147 -9 -80 -3 -179 -8 -220 -10 -41 -2
-140 -6 -220 -10 -80 -3 -172 -8 -205 -10 -56 -4 -191 -11 -395 -20 -105 -5
-298 -14 -405 -20 -44 -3 -136 -7 -205 -11 -69 -3 -131 -6 -138 -6 -13 -1 -12
-58 2 -173 2 -16 7 -73 11 -125 4 -52 9 -113 11 -135 2 -22 6 -74 9 -115 2
-41 7 -113 10 -160 22 -302 28 -503 28 -920 0 -223 -1 -430 -3 -460 -3 -72 -2
-92 8 -87 4 3 59 8 122 11 63 4 140 9 170 11 139 11 280 20 452 30 31 1 61 6
67 9 6 4 11 2 11 -4 0 -7 6 -8 18 -2 9 4 54 8 99 7 46 0 83 4 83 9 0 5 8 2 17
-5 10 -9 14 -9 10 -2 -6 9 3 11 34 8 23 -2 47 -1 53 2 22 14 47 10 41 -6 -4
-11 -1 -10 15 4 13 12 20 14 20 5 0 -10 3 -10 15 0 8 7 15 8 15 3 0 -5 7 -10
15 -10 8 0 11 5 8 10 -4 6 0 8 9 4 9 -3 20 -1 26 5 6 6 12 6 17 -3 5 -8 4 -10
-3 -5 -7 4 -12 2 -12 -3 0 -14 17 -14 25 -1 4 6 11 8 16 5 5 -4 9 0 9 7 0 10
2 10 9 -1 8 -13 64 -24 56 -11 -1 3 4 12 13 20 14 13 15 13 10 -1 -4 -10 1
-15 13 -16 10 -1 19 4 19 10 0 7 4 6 10 -3 8 -12 10 -12 10 5 0 16 2 17 9 5 6
-8 7 -18 5 -22 -3 -4 0 -8 6 -8 7 0 10 7 7 15 -4 8 -1 17 5 21 6 4 8 3 5 -3
-4 -6 2 -13 14 -16 12 -3 22 0 26 9 3 9 14 12 29 10 13 -3 24 -1 24 3 0 5 15
7 33 6 17 -1 37 2 44 7 7 5 14 5 18 -2 5 -8 11 -7 23 2 12 10 14 10 8 1 -9
-16 -1 -16 24 -1 26 17 38 2 15 -20 -17 -16 -18 -16 -12 1 4 10 3 15 -2 12 -6
-3 -9 -14 -8 -25 1 -19 2 -19 26 3 16 14 22 17 19 7 -4 -11 1 -16 15 -18 12 0
17 2 11 6 -13 9 -26 42 -16 42 4 0 15 -12 25 -28 13 -20 17 -22 15 -8 -2 10 2
21 8 23 7 2 11 -4 10 -13 0 -9 6 -19 14 -21 13 -4 13 -3 1 5 -13 9 -13 13 0
28 8 10 9 15 2 11 -6 -4 -14 -3 -17 1 -3 5 13 8 36 6 23 -2 48 1 57 6 11 6 22
3 34 -8 14 -13 18 -13 15 -2 -3 13 2 16 38 19 17 1 16 22 -6 185 -5 39 -12 94
-15 121 -3 28 -7 66 -9 85 -3 19 -7 62 -11 95 -3 33 -8 74 -10 90 -4 28 -9 81
-20 215 -3 30 -7 78 -9 105 -29 325 -38 548 -39 935 l-1 296 -38 0 c-21 0 -39
-1 -41 -2z m-5 -2156 c-7 -7 -12 -8 -12 -2 0 14 12 26 19 19 2 -3 -1 -11 -7
-17z m-292 -18 c0 -5 -2 -10 -4 -10 -3 0 -8 5 -11 10 -3 6 -1 10 4 10 6 0 11
-4 11 -10z"/>
<path d="M2260 265 c-7 -9 -8 -15 -2 -15 5 0 12 7 16 15 3 8 4 15 2 15 -2 0
-9 -7 -16 -15z"/>
<path d="M1981 242 c-8 -14 -8 -22 -1 -22 5 0 10 8 10 17 0 16 1 16 13 0 8
-11 17 -14 26 -8 9 6 10 11 2 15 -6 4 -11 2 -11 -5 0 -7 -6 -5 -14 6 -13 18
-14 18 -25 -3z"/>
<path d="M2201 251 c-7 -5 -9 -11 -5 -14 5 -3 15 1 22 9 14 16 5 18 -17 5z"/>
<path d="M1920 240 c-7 -4 -21 -7 -30 -5 -9 2 -17 -3 -17 -11 0 -8 4 -14 9
-14 4 0 8 4 8 9 0 6 9 8 20 6 11 -2 20 0 20 5 0 5 6 7 14 4 8 -3 16 -1 19 3 7
12 -26 14 -43 3z"/>
<path d="M2280 239 c0 -5 5 -7 10 -4 6 3 10 8 10 11 0 2 -4 4 -10 4 -5 0 -10
-5 -10 -11z"/>
<path d="M2230 232 c0 -4 9 -8 19 -8 11 0 17 4 15 8 -7 10 -34 10 -34 0z"/>
</g>
</svg>
